<svg viewBox="0 0 2267.72 595.28" xmlns="http://www.w3.org/2000/svg" data-name="Calque 1" id="Calque_1">
  <defs>
    <style>
      .cls-1 {
        fill: #fff;
      }
    </style>
  </defs>
  <path d="M593.05,556.61v9.2h815.84v-9.2h-815.84Z" class="cls-1"></path>
  <g>
    <path d="M1765.12,292.52h-61.72v92.96c-2.75.08-12.83.41-12.83.41-36.45,0-63.36-9.06-79.81-26.84-16.67-17.99-25.1-38.13-25.1-59.83,0-16.18,4.4-31.34,13.02-44.97,8.7-13.67,20.39-24.22,34.67-31.32,14.51-7.14,30.78-10.86,48.34-10.86,23.98,0,48.48,4.33,72.88,12.8l10.16,3.56v-42.85l-6-1.33c-27.73-6.15-53.06-9.26-75.23-9.26-29.54,0-57.14,4.92-82.04,14.53-25.27,9.84-45.25,24.6-59.27,43.76-14.14,19.38-21.3,41.48-21.3,65.73s7.33,46.93,21.84,66.47c14.35,19.32,34.32,33.98,59.45,43.51,24.57,9.32,52.93,14.07,84.25,14.07,21.93,0,46.23-2.32,72.4-6.87-.37.02,4.78-.85,4.78-.85l1.5-.29v-122.51Z" class="cls-1"></path>
    <path d="M328.9,418.57h62.83v-100.88h126.61v-37.09h-126.61v-59.66h141.42v-37.09h-204.25v234.72Z" class="cls-1"></path>
    <path d="M814.08,183.85h-62.85v234.72h163.06v-37.06h-100.21v-197.66Z" class="cls-1"></path>
    <path d="M1061.03,177c-43.35,0-77.14,11.31-100.42,33.6-23.35,22.38-35.19,52.82-35.19,90.36s11.84,68.08,35.19,90.49c23.27,22.29,57.1,33.59,100.42,33.59s77.26-11.31,100.46-33.59c23.32-22.41,35.11-52.84,35.11-90.49s-11.79-67.98-35.11-90.36c-23.2-22.29-57.06-33.6-100.46-33.6ZM1112.96,366.75c-13.76,14.04-31.21,21.16-51.92,21.16s-38.22-7.12-51.98-21.16c-13.8-14.09-20.81-36.2-20.81-65.73s7.01-51.63,20.81-65.73c13.76-14.03,31.22-21.14,51.98-21.14s38.16,7.11,51.92,21.14c13.77,14.08,20.85,36.22,20.85,65.73s-7.08,51.64-20.85,65.73Z" class="cls-1"></path>
    <rect height="234.6" width="62.75" y="183.96" x="594.61" class="cls-1"></rect>
    <path d="M1953.23,184.05h-46.64l-109.34,234.51h57.25s26.88-59.35,27.77-61.28h95.27c.88,1.94,27.86,61.28,27.86,61.28h58.56l-110.74-234.51ZM1892.62,323.51l.05-.08c4.24-9.5,27.73-63.06,31.63-72.52.15-.31,2.29-7.18,3.79-12.05,1.51,4.61,3.86,12.1,3.86,12.1h0s31.03,72.82,30.92,72.55c.11.27-69.99-.51-70.26,0Z" class="cls-1"></path>
  </g>
  <path d="M1402.5,311.02c14.31-5.38,19.8-10.5,27.17-15.62h0c10.39-7.27,18.72-15.73,24.73-25.07,6.29-9.8,9.47-19.8,9.47-29.74,0-11.24-4.97-21.7-14.76-31.02-9.2-8.79-22.09-15.41-38.39-19.65-16.34-4.24-38.41-6.05-70.34-6.05h-87.82v234.72h62.9v-197.63h24.84c64.15,0,60.75,20.98,60.75,26.4,0,27.68-43.9,44.67-61.1,50.3v29.74l93.98,90.78,60.27.42h18.96s-106.67-103.68-110.67-107.55Z" class="cls-1"></path>
  <g>
    <path d="M1541.15,534.4l-19.59,52.73h13.87s3.64-10.44,3.88-11.08h16.26c.27.64,3.74,11.08,3.74,11.08h14.26l-19.41-52.73h-13.02ZM1540.14,566.1c.33-.85,6.03-16.18,7.44-20.05.88,2.42,6.56,18.71,7.05,20.05h-14.49Z" class="cls-1"></path>
    <rect height="52.73" width="13.59" y="534.4" x="1676.89" class="cls-1"></rect>
    <path d="M1642.41,582.76c-.06-.1-.57-2.93-.57-2.93,0-.07-.22-3.2-.22-3.2,0,.04-.14-2.78-.14-2.78,0-.08-.57-3.94-.57-3.94,0,.08-1.26-3.8-1.26-3.8-.1-.13-2.46-3.16-2.46-3.16-.04-.04-1.42-.79-1.62-.93,1.95-1.2,3.59-2.46,4.57-4.09,1.29-2.33,1.97-5.13,1.97-8.31,0-2.09-.39-4.07-1.1-5.87-.77-1.84-1.84-3.46-3.2-4.85-1.38-1.39-3.09-2.47-4.98-3.29-1.95-.78-4.14-1.2-6.5-1.2h-27.9v52.73h13.65v-19.47h9.35c2.3,0,3.9.45,4.83,1.41.96.97,1.64,2.63,1.92,4.88l.64,6.25c0-.07,1.17,6.03,1.17,6.03l.35.91h14.01l-1-2.13s-.93-2.11-.94-2.25ZM1627.77,556.12c-1.06.94-2.75,1.44-5.05,1.44h-11.47v-12.31h11.47c2.33,0,4.02.49,5.05,1.4,1.02.88,1.53,2.48,1.53,4.65,0,2.28-.51,3.89-1.53,4.83Z" class="cls-1"></path>
    <path d="M1761.6,563.26c-1.28-1.98-2.83-3.59-4.56-4.74l-5.25-2.48s-3.89-1.05-3.89-1.05c0,0,.08.07.1.13-.56-.27-2.28-.72-7.48-2.11l-4.29-1.44h0s-1.53-1.09-1.53-1.14h0c0-.11-.33-1.7-.33-1.7,0,.1.45-1.76.45-1.76,0,0,1.41-1.41,1.42-1.41.1-.04,1.87-.73,1.87-.73-.08.03,2.32-.25,2.32-.25,0,0,3.37.33,3.4.33,0,.03,2.56,1.03,2.56,1.03-.1-.06,1.51,1.78,1.51,1.78l.78,3.1.04,1.35h13.21v-1.44c0-3.11-.56-5.82-1.79-8.02-1.12-2.21-2.77-4.1-4.78-5.53-1.98-1.35-4.21-2.42-6.79-3.07l-7.72-.9-6.97.96c-2.38.64-4.52,1.67-6.39,3-1.93,1.41-3.44,3.15-4.62,5.22-1.2,2.05-1.83,4.55-1.83,7.35,0,2.48.48,4.65,1.48,6.49.91,1.76,2.18,3.31,3.69,4.47l5.04,2.85s5.51,1.75,5.51,1.75c0,0-.08-.07-.13-.14.53.22,1.85.58,5.43,1.53l4.52,1.45h-.02l2.86,1.75.84,2.29-.65,2.19-1.9,1.54-2.78.81-2.8.22-3.82-.46c.13,0-2.87-1.38-2.87-1.38l-1.99-2.36-.73-3.58v-1.44h-13.28v1.44c-.04,3.28.56,6.18,1.83,8.61,1.17,2.39,2.93,4.42,5.01,5.96,2.11,1.56,4.54,2.72,7.24,3.42l8.21,1.05c3.45,0,6.56-.4,9.24-1.23,2.72-.85,5.06-2,6.88-3.58,1.89-1.56,3.33-3.37,4.31-5.57.91-2.16,1.38-4.48,1.38-6.96,0-3.05-.64-5.64-1.95-7.63Z" class="cls-1"></path>
    <path d="M1486.18,534.45h-23.09v52.68h11.51v-19.07h11.58c5.91,0,10.5-1.55,13.67-4.67,3.69-3.73,4.48-8.6,4.48-12.09,0-5.05-1.77-16.86-18.16-16.86ZM1485.71,557.98h-11.11v-13.49h11.24c4.85,0,6.94,2.04,6.94,6.75,0,4.98-3.63,6.74-7.08,6.74Z" class="cls-1"></path>
  </g>
  <g>
    <path d="M611.64,5.6h-16.81v69.99h53.69v-14.05h-36.88V5.6Z" class="cls-1"></path>
    <path d="M710.32,5.6l-29.63,69.99h17.57s5.99-15.25,6.83-17.46h26.22c.87,2.21,6.81,17.46,6.81,17.46h18.1l-29.7-69.99h-16.19ZM708.74,45.25c1.53-3.96,7.22-16.24,9.51-22.25,2.34,6.05,7.96,18.29,9.5,22.25h-19.02Z" class="cls-1"></path>
    <path d="M1146.47,5.6l-29.59,69.99h17.59s5.99-15.25,6.82-17.46h26.17c.87,2.21,6.78,17.46,6.78,17.46h18.14l-29.71-69.99h-16.19ZM1144.9,45.25c1.57-3.96,7.24-16.24,9.55-22.25,2.37,6.05,7.95,18.29,9.45,22.25h-19Z" class="cls-1"></path>
    <path d="M848.2,37.75c4.89-3.18,7.66-7.91,7.66-13.8,0-11.7-8.61-18.35-23.6-18.35h-37.29v69.99h35.38c18.04,0,28.78-7.64,28.78-20.41,0-8.44-4.06-14.49-10.94-17.43ZM811.79,19.09h18.66c7.17,0,8.59,2.68,8.59,6.99,0,6.59-6.54,7.09-8.59,7.09h-18.66v-14.08ZM832.18,62.05h-20.39v-16.48h20.39c4.65,0,10.14,1.41,10.14,8.09s-5.49,8.38-10.14,8.38Z" class="cls-1"></path>
    <path d="M936.42,4c-21.66,0-36.77,15.03-36.77,36.59s15.12,36.58,36.77,36.58,36.83-15.07,36.83-36.58-15.12-36.59-36.83-36.59ZM936.42,63.66c-14.7,0-19.96-11.92-19.96-23.06s5.26-23.08,19.96-23.08,20.04,11.94,20.04,23.08-5.26,23.06-20.04,23.06Z" class="cls-1"></path>
    <path d="M1351.98,4c-21.69,0-36.8,15.03-36.8,36.59s15.12,36.58,36.8,36.58,36.82-15.07,36.82-36.58-15.17-36.59-36.82-36.59ZM1351.98,63.66c-14.72,0-20.01-11.92-20.01-23.06s5.29-23.06,20.01-23.06,19.99,11.92,19.99,23.06-5.22,23.06-19.99,23.06Z" class="cls-1"></path>
    <path d="M1079.26,56.18c0-8.54-3.97-12.52-7.51-14.38,5.58-3.41,8.76-8.97,8.76-16.34,0-12.65-9.5-19.85-26.05-19.85h-36.71v69.99h16.82v-27.13h16.61c9.74,0,12.38,3.32,12.38,15.39,0,3.32,0,7.47,2.32,10.84l.61.91h19.73l-3.64-3.5c-2.05-2.03-3.32-8.1-3.32-15.92ZM1053.33,35.6h-18.75v-16.51h18.59c7.54,0,10.55,2.27,10.55,8s-3.41,8.5-10.39,8.5Z" class="cls-1"></path>
    <path d="M1560.12,56.18c0-8.54-3.97-12.52-7.58-14.38,5.61-3.41,8.74-8.97,8.74-16.34,0-12.65-9.47-19.87-26-19.87h-36.7v70.01h16.82v-27.13h16.61c9.74,0,12.41,3.32,12.41,15.39,0,3.32,0,7.47,2.29,10.84l.58.91h19.75l-3.64-3.5c-2.05-2.03-3.28-8.1-3.28-15.92ZM1534.15,35.6h-18.75v-16.51h18.56c7.62,0,10.54,2.25,10.54,8s-3.34,8.5-10.35,8.5Z" class="cls-1"></path>
    <path d="M1214.82,19.63h23.01v55.97h16.78V19.63h23.13V5.58l-62.92.02v14.03Z" class="cls-1"></path>
    <rect height="70.01" width="16.81" y="5.58" x="1433.24" class="cls-1"></rect>
    <path d="M1623.82,46.33h36.6v-13.53h-36.6v-13.17h39.54V5.58h-56.35v70.01h57.06v-14.05h-40.25v-15.21Z" class="cls-1"></path>
    <path d="M1751.29,35.63l-17.98-4.36-2.99-.72c-6.38-1.57-7.11-4.47-7.11-6.48,0-6.23,9.41-6.53,11.27-6.53,12.93,0,13.43,7.3,13.62,9.74l.14,1.89h16.66v-2.07c0-13.79-12.03-23.09-29.9-23.09-13.74,0-28.59,6.7-28.59,21.45,0,6.56,3.05,15.12,17.6,18.7l9.67,2.28,11.84,3.1c3.2,1.11,4.59,2.96,4.59,6.22,0,4.92-4.98,7.9-13.25,7.9-6.14,0-16.4-1.61-16.4-12.09v-2.06h-16.82l.02,2.1c.28,16,12.37,25.56,32.34,25.56,14.28,0,30.89-5.96,30.89-22.74,0-7.26-4.83-15.85-15.62-18.8Z" class="cls-1"></path>
  </g>
</svg>