<?xml version="1.0" encoding="UTF-8" standalone="no"?>
<svg
   xmlns:dc="http://purl.org/dc/elements/1.1/"
   xmlns:cc="http://creativecommons.org/ns#"
   xmlns:rdf="http://www.w3.org/1999/02/22-rdf-syntax-ns#"
   xmlns:svg="http://www.w3.org/2000/svg"
   xmlns="http://www.w3.org/2000/svg"
   viewBox="0 0 1056 372"
   height="372"
   width="1056"
   xml:space="preserve"
   id="svg2"
   version="1.1"><metadata
     id="metadata8"><rdf:RDF><cc:Work
         rdf:about=""><dc:format>image/svg+xml</dc:format><dc:type
           rdf:resource="http://purl.org/dc/dcmitype/StillImage" /></cc:Work></rdf:RDF></metadata><defs
     id="defs6"><clipPath
       id="clipPath20"
       clipPathUnits="userSpaceOnUse"><path
         id="path18"
         d="M 0,279 H 792 V 0 H 0 Z" /></clipPath></defs><g
     transform="matrix(1.3333333,0,0,-1.3333333,0,372)"
     id="g10"><path
       id="path12"
       style="fill:#2b2b2a;fill-opacity:1;fill-rule:nonzero;stroke:none"
       d="m 137.723,22.23 h 349.149 v 3.935 H 137.723 Z" /><g
       id="g14"><g
         clip-path="url(#clipPath20)"
         id="g16"><g
           transform="translate(639.3676,139.1467)"
           id="g22"><path
             id="path24"
             style="fill:#2b2b2a;fill-opacity:1;fill-rule:nonzero;stroke:none"
             d="m 0,0 h -26.37 v -39.734 c -1.306,-0.055 -5.512,-0.201 -5.512,-0.201 -15.667,0 -27.163,3.881 -34.184,11.478 -7.166,7.712 -10.732,16.323 -10.732,25.634 0,6.887 1.887,13.395 5.582,19.215 3.682,5.83 8.704,10.374 14.798,13.401 6.2,3.039 13.163,4.644 20.749,4.644 10.207,0 20.672,-1.859 31.095,-5.442 l 4.393,-1.532 v 18.37 l -2.558,0.511 c -11.844,2.662 -22.723,3.97 -32.202,3.97 -12.661,0 -24.483,-2.095 -35.186,-6.202 -10.732,-4.207 -19.279,-10.517 -25.258,-18.697 -6.024,-8.306 -9.147,-17.791 -9.147,-28.127 0,-10.564 3.175,-20.139 9.322,-28.471 6.153,-8.297 14.671,-14.554 25.485,-18.616 10.499,-3.988 22.612,-6.013 36.03,-6.013 9.358,0 19.746,0.982 30.956,2.911 -0.128,0 2.104,0.41 2.104,0.41 L 0,-52.421 v 0.688 z" /></g><g
           transform="translate(24.7657,85.2462)"
           id="g26"><path
             id="path28"
             style="fill:#2b2b2a;fill-opacity:1;fill-rule:nonzero;stroke:none"
             d="m 0,0 h 26.854 v 43.156 h 54.151 v 15.86 H 26.854 v 25.549 h 60.443 v 15.889 H 0 Z" /></g><g
           transform="translate(232.3502,185.6998)"
           id="g30"><path
             id="path32"
             style="fill:#2b2b2a;fill-opacity:1;fill-rule:nonzero;stroke:none"
             d="m 0,0 h -26.895 v -100.454 h 69.708 v 15.851 H 0 Z" /></g><g
           transform="translate(360.217,107.3721)"
           id="g34"><path
             id="path36"
             style="fill:#2b2b2a;fill-opacity:1;fill-rule:nonzero;stroke:none"
             d="m 0,0 c -5.873,-5.975 -13.342,-9.016 -22.199,-9.016 -8.885,0 -16.354,3.041 -22.228,9.016 -5.913,6.083 -9.002,15.533 -9.002,28.165 0,12.594 3.089,22.109 9.002,28.098 5.874,6.039 13.343,9.089 22.228,9.089 8.857,0 16.326,-3.05 22.199,-9.089 C 5.896,50.274 8.973,40.803 8.973,28.165 8.973,15.533 5.896,6.083 0,0 m -22.199,81.235 c -18.528,0 -32.966,-4.871 -42.975,-14.371 -9.975,-9.567 -15.05,-22.615 -15.05,-38.673 0,-16.093 5.075,-29.144 15.05,-38.717 10.009,-9.546 24.447,-14.371 42.975,-14.371 18.61,0 33.059,4.825 42.988,14.371 9.952,9.573 14.974,22.624 14.974,38.717 0,16.058 -5.022,29.106 -14.974,38.673 -9.929,9.5 -24.378,14.371 -42.988,14.371" /></g><path
           id="path38"
           style="fill:#2b2b2a;fill-opacity:1;fill-rule:nonzero;stroke:none"
           d="M 138.416,85.246 H 165.27 V 185.644 H 138.416 Z" /><g
           transform="translate(693.8623,125.9177)"
           id="g40"><path
             id="path42"
             style="fill:#2b2b2a;fill-opacity:1;fill-rule:nonzero;stroke:none"
             d="m 0,0 h 0.035 c 1.87,4.07 11.915,27.003 13.599,31.093 0,0.108 0.979,3.032 1.619,5.112 0.595,-1.951 1.556,-5.185 1.556,-5.185 0,0 13.337,-31.166 13.238,-31.02 C 30.146,-0.146 0.181,0.215 0,0 M 25.963,59.689 H 6.001 l -46.804,-100.36 h 24.553 c 0,0 11.495,25.365 11.915,26.215 H 36.38 c 0.379,-0.85 11.933,-26.215 11.933,-26.215 h 25.059 z" /></g><g
           transform="translate(484.1336,131.2748)"
           id="g44"><path
             id="path46"
             style="fill:#2b2b2a;fill-opacity:1;fill-rule:nonzero;stroke:none"
             d="m 0,0 c 6.094,2.322 8.559,4.463 11.63,6.683 4.457,3.137 7.935,6.718 10.604,10.744 2.68,4.172 4.026,8.431 4.026,12.667 0,4.824 -2.121,9.322 -6.31,13.305 -3.916,3.74 -9.41,6.58 -16.413,8.404 -6.997,1.8 -16.39,2.622 -30.064,2.622 H -64.143 V -46.029 h 26.878 v 84.565 h 10.662 c 27.419,0 26.009,-9.005 26.009,-11.306 0,-11.842 -18.86,-19.096 -26.114,-21.526 V -7.009 l 40.15,-38.862 25.823,-0.158 h 8.163 C 47.428,-46.029 1.737,-1.678 0,0" /></g><g
           transform="translate(543.0505,22.1141)"
           id="g48"><path
             id="path50"
             style="fill:#2b2b2a;fill-opacity:1;fill-rule:nonzero;stroke:none"
             d="M 0,0 C 0.204,0.317 2.599,6.898 3.193,8.55 3.555,7.489 6.007,0.576 6.188,0 Z M 0.443,13.534 -7.958,-9.023 h 5.931 c 0,0 1.607,4.47 1.666,4.752 h 7.015 c 0.11,-0.282 1.585,-4.752 1.585,-4.752 h 6.094 L 6.007,13.534 Z" /></g><path
           id="path52"
           style="fill:#2b2b2a;fill-opacity:1;fill-rule:nonzero;stroke:none"
           d="m 601.594,13.091 h 5.803 v 22.557 h -5.803 z" /><g
           transform="translate(580.5383,26.3848)"
           id="g54"><path
             id="path56"
             style="fill:#2b2b2a;fill-opacity:1;fill-rule:nonzero;stroke:none"
             d="m 0,0 c -0.437,-0.437 -1.177,-0.644 -2.144,-0.644 h -4.894 v 5.267 h 4.894 C -1.125,4.623 -0.397,4.387 0,4.034 0.454,3.633 0.652,2.98 0.652,2.048 0.652,1.051 0.454,0.387 0,0 m 6.327,-11.408 c 0,0.046 -0.233,1.244 -0.233,1.244 0,0.034 -0.18,1.357 -0.18,1.357 0,-0.017 -0.041,1.224 -0.041,1.224 0,0.02 -0.21,1.651 -0.21,1.651 0,-0.029 -0.571,1.661 -0.571,1.661 -0.07,0.044 -1.101,1.311 -1.101,1.311 0,0.056 -0.565,0.381 -0.6,0.423 0.722,0.504 1.503,1.031 1.923,1.73 0.524,1.013 0.798,2.211 0.798,3.571 0,0.88 -0.128,1.778 -0.414,2.511 C 5.314,6.065 4.894,6.753 4.334,7.353 3.682,7.944 2.971,8.393 2.19,8.739 1.34,9.118 0.431,9.264 -0.595,9.264 h -11.956 v -22.557 h 5.839 v 8.34 h 4.026 c 0.961,0 1.648,-0.189 2.068,-0.623 0.402,-0.385 0.711,-1.098 0.798,-2.069 l 0.274,-2.677 0.455,-2.554 0.233,-0.417 H 7.09 l -0.396,0.915 c 0,0 -0.367,0.879 -0.367,0.97" /></g><g
           transform="translate(637.8062,23.308)"
           id="g58"><path
             id="path60"
             style="fill:#2b2b2a;fill-opacity:1;fill-rule:nonzero;stroke:none"
             d="M 0,0 C -0.542,0.836 -1.177,1.533 -1.934,2.013 L -4.131,3.077 C -4.19,3.1 -5.803,3.52 -5.803,3.52 L -5.762,3.473 C -6.077,3.622 -6.8,3.784 -8.938,4.335 l -1.835,0.644 -0.723,0.518 c 0,0.053 -0.128,0.688 -0.128,0.688 0,-0.023 0.163,0.822 0.163,0.822 l 0.688,0.565 c 0,0.046 0.763,0.303 0.763,0.303 -0.052,-0.029 0.962,0.107 0.962,0.107 L -7.58,7.834 -6.473,7.391 c -0.058,0.017 0.67,-0.746 0.67,-0.746 L -5.53,5.314 V 4.755 h 5.658 v 0.597 c 0,1.322 -0.216,2.482 -0.711,3.429 -0.524,0.946 -1.171,1.765 -2.068,2.374 -0.793,0.597 -1.806,1.051 -2.902,1.297 l -3.263,0.419 -2.971,-0.419 c -1.049,-0.257 -2.027,-0.718 -2.791,-1.297 -0.78,-0.609 -1.45,-1.363 -2.016,-2.231 -0.472,-0.871 -0.722,-1.917 -0.722,-3.147 0,-1.069 0.233,-1.993 0.576,-2.765 0.438,-0.772 0.962,-1.442 1.562,-1.914 l 2.232,-1.232 2.394,-0.763 c 0,0 -0.076,0.021 -0.076,0.047 0.146,-0.073 0.746,-0.219 2.302,-0.644 l 1.911,-0.609 1.212,-0.752 0.396,-0.97 -0.326,-0.932 -0.746,-0.682 -1.247,-0.335 -1.177,-0.078 -1.619,0.186 c 0.04,0 -1.265,0.583 -1.265,0.583 l -0.839,1.01 -0.321,1.527 v 0.609 h -5.663 v -0.609 c -0.07,-1.389 0.239,-2.63 0.735,-3.673 0.535,-1.026 1.374,-1.897 2.237,-2.538 0.874,-0.67 1.87,-1.2 3.088,-1.471 l 3.426,-0.434 c 1.503,0 2.884,0.146 3.991,0.481 1.194,0.39 2.197,0.88 2.977,1.541 0.828,0.682 1.434,1.442 1.864,2.383 0.362,0.964 0.619,1.914 0.619,2.983 C 0.927,-1.949 0.565,-0.876 0,0" /></g><g
           transform="translate(519.7682,25.5483)"
           id="g62"><path
             id="path64"
             style="fill:#2b2b2a;fill-opacity:1;fill-rule:nonzero;stroke:none"
             d="m 0,0 h -4.755 v 5.786 h 4.79 C 2.103,5.786 3.006,4.903 3.006,2.893 3.006,0.772 1.492,0 0,0 m 0.187,10.1 h -9.853 v -22.557 h 4.911 v 8.169 h 4.942 c 2.552,0 4.509,0.635 5.872,1.987 1.574,1.593 1.865,3.699 1.865,5.159 0,2.147 -0.687,7.242 -7.737,7.242" /></g><g
           transform="translate(145.7223,261.9445)"
           id="g66"><path
             id="path68"
             style="fill:#2b2b2a;fill-opacity:1;fill-rule:nonzero;stroke:none"
             d="M 0,0 H -7.184 V -29.921 H 15.72 v 5.992 H 0 Z" /></g><g
           transform="translate(187.2881,244.9723)"
           id="g70"><path
             id="path72"
             style="fill:#2b2b2a;fill-opacity:1;fill-rule:nonzero;stroke:none"
             d="M 0,0 C 0.577,1.693 3.042,6.986 4.021,9.526 5.046,6.951 7.47,1.693 8.157,0 Z m 0.653,16.972 -12.655,-29.921 h 7.434 c 0,0 2.622,6.528 3.007,7.489 H 9.614 c 0.361,-0.961 2.901,-7.489 2.901,-7.489 h 7.796 L 7.54,16.972 Z" /></g><g
           transform="translate(373.9323,244.9723)"
           id="g74"><path
             id="path76"
             style="fill:#2b2b2a;fill-opacity:1;fill-rule:nonzero;stroke:none"
             d="M 0,0 C 0.612,1.693 3.077,6.986 4.096,9.526 5.11,6.951 7.47,1.693 8.14,0 Z m 0.612,16.972 -12.62,-29.921 h 7.522 c 0,0 2.564,6.528 2.925,7.489 H 9.667 c 0.361,-0.961 2.808,-7.489 2.808,-7.489 h 7.871 L 7.598,16.972 Z" /></g><g
           transform="translate(240.0235,237.8229)"
           id="g78"><path
             id="path80"
             style="fill:#2b2b2a;fill-opacity:1;fill-rule:nonzero;stroke:none"
             d="M 0,0 H -8.687 V 7.009 H 0 C 2.033,7.009 4.388,6.386 4.388,3.583 4.388,0.592 2.033,0 0,0 m -8.687,18.362 h 7.994 c 3.047,0 3.705,-1.159 3.705,-2.992 0,-2.808 -2.797,-3.026 -3.705,-3.026 h -7.994 z m 15.58,-7.988 c 2.097,1.369 3.28,3.403 3.28,5.911 0,4.999 -3.682,7.837 -10.103,7.837 h -15.9 V -5.8 h 15.101 c 7.727,0 12.295,3.245 12.295,8.728 0,3.583 -1.679,6.179 -4.673,7.446" /></g><g
           transform="translate(284.7765,237.1093)"
           id="g82"><path
             id="path84"
             style="fill:#2b2b2a;fill-opacity:1;fill-rule:nonzero;stroke:none"
             d="m 0,0 c -6.38,0 -8.629,5.101 -8.629,9.902 0,4.76 2.249,9.847 8.629,9.847 6.275,0 8.524,-5.087 8.524,-9.847 C 8.524,5.101 6.275,0 0,0 m 0,25.505 c -9.358,0 -15.848,-6.4 -15.848,-15.603 0,-9.188 6.49,-15.679 15.848,-15.679 9.177,0 15.708,6.491 15.708,15.679 0,9.203 -6.531,15.603 -15.708,15.603" /></g><g
           transform="translate(462.5529,237.1093)"
           id="g86"><path
             id="path88"
             style="fill:#2b2b2a;fill-opacity:1;fill-rule:nonzero;stroke:none"
             d="m 0,0 c -6.328,0 -8.542,5.101 -8.542,9.902 0,4.76 2.214,9.838 8.542,9.838 6.257,0 8.541,-5.078 8.541,-9.838 C 8.541,5.101 6.257,0 0,0 m 0,25.505 c -9.322,0 -15.743,-6.4 -15.743,-15.603 0,-9.188 6.421,-15.679 15.743,-15.679 9.194,0 15.76,6.491 15.76,15.679 0,9.203 -6.566,15.603 -15.76,15.603" /></g><g
           transform="translate(334.7553,249.1147)"
           id="g90"><path
             id="path92"
             style="fill:#2b2b2a;fill-opacity:1;fill-rule:nonzero;stroke:none"
             d="m 0,0 h -8.087 v 7.071 h 7.965 c 3.227,0 4.55,-0.941 4.55,-3.418 C 4.428,1.224 2.937,0 0,0 m 11.07,-8.778 c 0,3.648 -1.712,5.314 -3.216,6.165 2.447,1.407 3.823,3.837 3.823,6.939 0,5.445 -4.131,8.504 -11.199,8.504 h -15.743 v -29.922 h 7.178 v 11.604 h 7.126 c 4.137,0 5.313,-1.442 5.313,-6.593 0,-1.439 0,-3.187 1.038,-4.65 l 0.198,-0.361 h 8.454 l -1.509,1.469 c -0.856,0.879 -1.463,3.472 -1.463,6.845" /></g><g
           transform="translate(540.5159,249.1147)"
           id="g94"><path
             id="path96"
             style="fill:#2b2b2a;fill-opacity:1;fill-rule:nonzero;stroke:none"
             d="M 0,0 H -8.017 V 7.071 H -0.11 C 3.082,7.071 4.457,6.13 4.457,3.653 4.457,1.224 2.978,0 0,0 m 11.111,-8.778 c 0,3.648 -1.666,5.314 -3.239,6.165 2.354,1.407 3.694,3.837 3.694,6.939 0,5.445 -4.02,8.53 -11.117,8.53 h -15.72 v -29.948 h 7.254 v 11.604 h 7.079 c 4.16,0 5.395,-1.442 5.395,-6.593 0,-1.439 0,-3.187 0.874,-4.65 l 0.216,-0.361 h 8.501 l -1.538,1.469 c -0.944,0.879 -1.399,3.472 -1.399,6.845" /></g><g
           transform="translate(403.8161,255.952)"
           id="g98"><path
             id="path100"
             style="fill:#2b2b2a;fill-opacity:1;fill-rule:nonzero;stroke:none"
             d="m 0,0 h 9.899 v -23.929 h 7.184 V 0 H 26.93 V 6.019 L 0,5.993 Z" /></g><path
           id="path102"
           style="fill:#2b2b2a;fill-opacity:1;fill-rule:nonzero;stroke:none"
           d="m 497.266,232.023 h 7.254 v 29.948 h -7.254 z" /><g
           transform="translate(578.8481,244.5439)"
           id="g104"><path
             id="path106"
             style="fill:#2b2b2a;fill-opacity:1;fill-rule:nonzero;stroke:none"
             d="M 0,0 H 15.691 V 5.794 H 0 v 5.614 h 16.944 v 6.019 H -7.178 v -29.948 h 24.442 v 5.993 L 0,-6.528 Z" /></g><g
           transform="translate(633.4418,249.1033)"
           id="g108"><path
             id="path110"
             style="fill:#2b2b2a;fill-opacity:1;fill-rule:nonzero;stroke:none"
             d="m 0,0 -7.766,1.853 -1.265,0.343 c -2.75,0.659 -3.053,1.894 -3.053,2.739 0,2.692 4.061,2.811 4.877,2.811 5.494,0 5.768,-3.12 5.879,-4.172 L -1.293,2.756 H 5.78 v 0.908 c 0,5.894 -5.133,9.847 -12.783,9.847 -5.908,0 -12.224,-2.837 -12.224,-9.174 0,-2.767 1.34,-6.429 7.563,-7.982 l 4.113,-0.95 5.081,-1.348 c 1.305,-0.455 1.957,-1.236 1.957,-2.669 0,-2.115 -2.144,-3.382 -5.616,-3.382 -2.745,0 -7.062,0.714 -7.062,5.168 v 0.883 h -7.254 l 0.041,-0.891 c 0.105,-6.838 5.203,-10.937 13.832,-10.937 6.129,0 13.238,2.532 13.238,9.739 0,3.1 -1.993,6.753 -6.666,8.032" /></g></g></g></g></svg>